<mxfile host="app.diagrams.net" agent="Mozilla/5.0 (Windows NT 10.0; Win64; x64) AppleWebKit/537.36 (KHTML, like Gecko) Chrome/129.0.0.0 Safari/537.36 Edg/129.0.0.0" version="24.7.17">
  <diagram name="Seite-1" id="Dc8n_FXhKjbEZVKhu-Ty">
    <mxGraphModel dx="1175" dy="638" grid="1" gridSize="10" guides="1" tooltips="1" connect="1" arrows="1" fold="1" page="1" pageScale="1" pageWidth="827" pageHeight="1169" math="0" shadow="0">
      <root>
        <mxCell id="0" />
        <mxCell id="1" parent="0" />
        <mxCell id="KtT7BSsK7c3JDv44RScj-64" style="edgeStyle=orthogonalEdgeStyle;rounded=0;orthogonalLoop=1;jettySize=auto;html=1;exitX=0.5;exitY=1;exitDx=0;exitDy=0;fontSize=14;" parent="1" source="KtT7BSsK7c3JDv44RScj-5" target="KtT7BSsK7c3JDv44RScj-66" edge="1">
          <mxGeometry relative="1" as="geometry">
            <mxPoint x="514" y="110" as="targetPoint" />
            <Array as="points">
              <mxPoint x="380" y="80" />
              <mxPoint x="380" y="100" />
              <mxPoint x="110" y="100" />
            </Array>
          </mxGeometry>
        </mxCell>
        <mxCell id="KtT7BSsK7c3JDv44RScj-68" value="&amp;nbsp;read&amp;nbsp;" style="edgeLabel;html=1;align=center;verticalAlign=middle;resizable=0;points=[];spacingLeft=0;labelBorderColor=#000000;textShadow=0;fontSize=15;spacingTop=0;" parent="KtT7BSsK7c3JDv44RScj-64" vertex="1" connectable="0">
          <mxGeometry relative="1" as="geometry">
            <mxPoint x="-33" as="offset" />
          </mxGeometry>
        </mxCell>
        <mxCell id="KtT7BSsK7c3JDv44RScj-72" style="edgeStyle=orthogonalEdgeStyle;rounded=0;orthogonalLoop=1;jettySize=auto;html=1;exitX=0.5;exitY=1;exitDx=0;exitDy=0;entryX=0.5;entryY=0;entryDx=0;entryDy=0;" parent="1" source="KtT7BSsK7c3JDv44RScj-5" target="KtT7BSsK7c3JDv44RScj-70" edge="1">
          <mxGeometry relative="1" as="geometry">
            <Array as="points">
              <mxPoint x="420" y="80" />
              <mxPoint x="420" y="100" />
              <mxPoint x="690" y="100" />
            </Array>
          </mxGeometry>
        </mxCell>
        <mxCell id="KtT7BSsK7c3JDv44RScj-75" value="&amp;nbsp;write&amp;nbsp;" style="edgeLabel;html=1;align=center;verticalAlign=middle;resizable=0;points=[];labelBorderColor=default;fontSize=15;spacing=0;" parent="KtT7BSsK7c3JDv44RScj-72" vertex="1" connectable="0">
          <mxGeometry relative="1" as="geometry">
            <mxPoint x="29" as="offset" />
          </mxGeometry>
        </mxCell>
        <mxCell id="KtT7BSsK7c3JDv44RScj-77" style="edgeStyle=orthogonalEdgeStyle;rounded=0;orthogonalLoop=1;jettySize=auto;html=1;exitX=0.5;exitY=1;exitDx=0;exitDy=0;entryX=0.5;entryY=0;entryDx=0;entryDy=0;fontSize=15;labelBorderColor=default;" parent="1" source="KtT7BSsK7c3JDv44RScj-5" target="KtT7BSsK7c3JDv44RScj-42" edge="1">
          <mxGeometry relative="1" as="geometry" />
        </mxCell>
        <mxCell id="w00EdIfcHzNw-GCTsQfM-3" value="&lt;font style=&quot;font-size: 15px;&quot;&gt;&amp;nbsp;call&amp;nbsp;&lt;/font&gt;" style="edgeLabel;html=1;align=center;verticalAlign=middle;resizable=0;points=[];labelBorderColor=default;fontSize=15;" parent="KtT7BSsK7c3JDv44RScj-77" vertex="1" connectable="0">
          <mxGeometry x="0.7" relative="1" as="geometry">
            <mxPoint as="offset" />
          </mxGeometry>
        </mxCell>
        <mxCell id="KtT7BSsK7c3JDv44RScj-5" value="biotsavart_asdex.py" style="rounded=1;whiteSpace=wrap;html=1;fontSize=14;" parent="1" vertex="1">
          <mxGeometry x="334" y="20" width="134" height="60" as="geometry" />
        </mxCell>
        <UserObject label="biotsavart.inp" link="biotsavart.inp" id="KtT7BSsK7c3JDv44RScj-66">
          <mxCell style="rounded=0;whiteSpace=wrap;html=1;fontSize=14;" parent="1" vertex="1">
            <mxGeometry x="50" y="120" width="120" height="60" as="geometry" />
          </mxCell>
        </UserObject>
        <UserObject label="field.dat" link="biotsavart.inp" id="KtT7BSsK7c3JDv44RScj-70">
          <mxCell style="rounded=0;whiteSpace=wrap;html=1;fontSize=14;" parent="1" vertex="1">
            <mxGeometry x="630" y="120" width="120" height="60" as="geometry" />
          </mxCell>
        </UserObject>
        <mxCell id="KtT7BSsK7c3JDv44RScj-76" value="vvn_asdex.py" style="swimlane;whiteSpace=wrap;html=1;" parent="1" vertex="1">
          <mxGeometry x="261" y="170" width="280" height="510" as="geometry">
            <mxRectangle x="314" y="170" width="140" height="30" as="alternateBounds" />
          </mxGeometry>
        </mxCell>
        <mxCell id="w00EdIfcHzNw-GCTsQfM-4" style="edgeStyle=orthogonalEdgeStyle;rounded=0;orthogonalLoop=1;jettySize=auto;html=1;exitX=0.5;exitY=1;exitDx=0;exitDy=0;" parent="KtT7BSsK7c3JDv44RScj-76" source="KtT7BSsK7c3JDv44RScj-42" target="KtT7BSsK7c3JDv44RScj-40" edge="1">
          <mxGeometry relative="1" as="geometry" />
        </mxCell>
        <mxCell id="w00EdIfcHzNw-GCTsQfM-5" value="&lt;font style=&quot;font-size: 15px;&quot;&gt;&amp;nbsp;call&amp;nbsp;&lt;/font&gt;" style="edgeLabel;html=1;align=center;verticalAlign=middle;resizable=0;points=[];labelBorderColor=default;" parent="w00EdIfcHzNw-GCTsQfM-4" vertex="1" connectable="0">
          <mxGeometry relative="1" as="geometry">
            <mxPoint as="offset" />
          </mxGeometry>
        </mxCell>
        <mxCell id="KtT7BSsK7c3JDv44RScj-42" value="magfie" style="rounded=1;whiteSpace=wrap;html=1;" parent="KtT7BSsK7c3JDv44RScj-76" vertex="1">
          <mxGeometry x="80" y="71" width="120" height="60" as="geometry" />
        </mxCell>
        <mxCell id="KtT7BSsK7c3JDv44RScj-82" style="edgeStyle=orthogonalEdgeStyle;rounded=0;orthogonalLoop=1;jettySize=auto;html=1;exitX=0.5;exitY=1;exitDx=0;exitDy=0;entryX=0.5;entryY=0;entryDx=0;entryDy=0;" parent="KtT7BSsK7c3JDv44RScj-76" source="KtT7BSsK7c3JDv44RScj-40" target="KtT7BSsK7c3JDv44RScj-18" edge="1">
          <mxGeometry relative="1" as="geometry" />
        </mxCell>
        <mxCell id="w00EdIfcHzNw-GCTsQfM-6" value="&amp;nbsp;call&amp;nbsp;" style="edgeLabel;html=1;align=center;verticalAlign=middle;resizable=0;points=[];labelBorderColor=default;fontSize=15;" parent="KtT7BSsK7c3JDv44RScj-82" vertex="1" connectable="0">
          <mxGeometry relative="1" as="geometry">
            <mxPoint as="offset" />
          </mxGeometry>
        </mxCell>
        <mxCell id="KtT7BSsK7c3JDv44RScj-40" value="gbcoil" style="rounded=1;whiteSpace=wrap;html=1;" parent="KtT7BSsK7c3JDv44RScj-76" vertex="1">
          <mxGeometry x="80" y="178" width="120" height="60" as="geometry" />
        </mxCell>
        <mxCell id="w00EdIfcHzNw-GCTsQfM-7" style="edgeStyle=orthogonalEdgeStyle;rounded=0;orthogonalLoop=1;jettySize=auto;html=1;exitX=0.5;exitY=1;exitDx=0;exitDy=0;entryX=0.5;entryY=0;entryDx=0;entryDy=0;" parent="KtT7BSsK7c3JDv44RScj-76" source="KtT7BSsK7c3JDv44RScj-18" target="KtT7BSsK7c3JDv44RScj-24" edge="1">
          <mxGeometry relative="1" as="geometry" />
        </mxCell>
        <mxCell id="w00EdIfcHzNw-GCTsQfM-8" value="&amp;nbsp;call&amp;nbsp;" style="edgeLabel;html=1;align=center;verticalAlign=middle;resizable=0;points=[];fontSize=15;labelBorderColor=default;spacing=0;" parent="w00EdIfcHzNw-GCTsQfM-7" vertex="1" connectable="0">
          <mxGeometry relative="1" as="geometry">
            <mxPoint as="offset" />
          </mxGeometry>
        </mxCell>
        <mxCell id="KtT7BSsK7c3JDv44RScj-18" value="GBmodc" style="rounded=1;whiteSpace=wrap;html=1;" parent="KtT7BSsK7c3JDv44RScj-76" vertex="1">
          <mxGeometry x="80" y="284" width="120" height="60" as="geometry" />
        </mxCell>
        <mxCell id="KtT7BSsK7c3JDv44RScj-24" value="datw7xm" style="rounded=1;whiteSpace=wrap;html=1;" parent="KtT7BSsK7c3JDv44RScj-76" vertex="1">
          <mxGeometry x="80" y="393" width="120" height="60" as="geometry" />
        </mxCell>
        <UserObject label="fort.36" id="KtT7BSsK7c3JDv44RScj-79">
          <mxCell style="rounded=0;whiteSpace=wrap;html=1;fontSize=14;" parent="1" vertex="1">
            <mxGeometry x="630" y="348" width="120" height="60" as="geometry" />
          </mxCell>
        </UserObject>
        <mxCell id="KtT7BSsK7c3JDv44RScj-81" style="edgeStyle=orthogonalEdgeStyle;rounded=0;orthogonalLoop=1;jettySize=auto;html=1;exitX=1;exitY=0.5;exitDx=0;exitDy=0;entryX=0;entryY=0.5;entryDx=0;entryDy=0;" parent="1" source="KtT7BSsK7c3JDv44RScj-40" target="KtT7BSsK7c3JDv44RScj-79" edge="1">
          <mxGeometry relative="1" as="geometry" />
        </mxCell>
        <mxCell id="KtT7BSsK7c3JDv44RScj-87" value="&amp;nbsp;write&amp;nbsp;" style="edgeLabel;html=1;align=center;verticalAlign=middle;resizable=0;points=[];fontSize=15;labelBorderColor=default;" parent="KtT7BSsK7c3JDv44RScj-81" vertex="1" connectable="0">
          <mxGeometry x="-0.23" relative="1" as="geometry">
            <mxPoint x="51" as="offset" />
          </mxGeometry>
        </mxCell>
        <UserObject label="co_asd.dd" id="KtT7BSsK7c3JDv44RScj-83">
          <mxCell style="rounded=0;whiteSpace=wrap;html=1;fontSize=14;" parent="1" vertex="1">
            <mxGeometry x="50" y="550" width="120" height="60" as="geometry" />
          </mxCell>
        </UserObject>
        <UserObject label="cur_asd.dd" id="KtT7BSsK7c3JDv44RScj-84">
          <mxCell style="rounded=0;whiteSpace=wrap;html=1;fontSize=14;" parent="1" vertex="1">
            <mxGeometry x="630" y="550" width="120" height="60" as="geometry" />
          </mxCell>
        </UserObject>
        <mxCell id="elsZLwuctmKBRh0xGfGA-8" style="edgeStyle=orthogonalEdgeStyle;rounded=0;orthogonalLoop=1;jettySize=auto;html=1;exitX=0.5;exitY=1;exitDx=0;exitDy=0;entryX=0.5;entryY=1;entryDx=0;entryDy=0;" parent="1" source="KtT7BSsK7c3JDv44RScj-24" target="KtT7BSsK7c3JDv44RScj-84" edge="1">
          <mxGeometry relative="1" as="geometry">
            <Array as="points">
              <mxPoint x="420" y="623" />
              <mxPoint x="420" y="643" />
              <mxPoint x="690" y="643" />
            </Array>
          </mxGeometry>
        </mxCell>
        <mxCell id="w00EdIfcHzNw-GCTsQfM-1" value="&amp;nbsp;read&amp;nbsp;" style="edgeLabel;html=1;align=center;verticalAlign=middle;resizable=0;points=[];fontSize=15;labelBorderColor=default;" parent="elsZLwuctmKBRh0xGfGA-8" vertex="1" connectable="0">
          <mxGeometry x="0.1862" y="1" relative="1" as="geometry">
            <mxPoint x="-9" as="offset" />
          </mxGeometry>
        </mxCell>
        <mxCell id="elsZLwuctmKBRh0xGfGA-10" style="edgeStyle=orthogonalEdgeStyle;rounded=0;orthogonalLoop=1;jettySize=auto;html=1;exitX=0.5;exitY=1;exitDx=0;exitDy=0;entryX=0.5;entryY=1;entryDx=0;entryDy=0;" parent="1" source="KtT7BSsK7c3JDv44RScj-24" target="KtT7BSsK7c3JDv44RScj-83" edge="1">
          <mxGeometry relative="1" as="geometry">
            <Array as="points">
              <mxPoint x="380" y="623" />
              <mxPoint x="380" y="643" />
              <mxPoint x="110" y="643" />
            </Array>
          </mxGeometry>
        </mxCell>
        <mxCell id="elsZLwuctmKBRh0xGfGA-11" value="&amp;nbsp;read&amp;nbsp;" style="edgeLabel;html=1;align=center;verticalAlign=middle;resizable=0;points=[];fontSize=15;labelBorderColor=default;" parent="elsZLwuctmKBRh0xGfGA-10" vertex="1" connectable="0">
          <mxGeometry x="-0.149" relative="1" as="geometry">
            <mxPoint x="-49" y="-3" as="offset" />
          </mxGeometry>
        </mxCell>
        <mxCell id="PhuaPJG-4haJfpa0ikJv-5" style="edgeStyle=orthogonalEdgeStyle;rounded=0;orthogonalLoop=1;jettySize=auto;html=1;exitX=0.5;exitY=1;exitDx=0;exitDy=0;entryX=0.5;entryY=0;entryDx=0;entryDy=0;fontSize=15;labelBorderColor=default;" parent="1" source="PhuaPJG-4haJfpa0ikJv-7" target="PhuaPJG-4haJfpa0ikJv-13" edge="1">
          <mxGeometry relative="1" as="geometry" />
        </mxCell>
        <mxCell id="PhuaPJG-4haJfpa0ikJv-6" value="&lt;font style=&quot;font-size: 15px;&quot;&gt;&amp;nbsp;call&amp;nbsp;&lt;/font&gt;" style="edgeLabel;html=1;align=center;verticalAlign=middle;resizable=0;points=[];labelBorderColor=default;fontSize=15;" parent="PhuaPJG-4haJfpa0ikJv-5" vertex="1" connectable="0">
          <mxGeometry x="0.7" relative="1" as="geometry">
            <mxPoint as="offset" />
          </mxGeometry>
        </mxCell>
        <mxCell id="PhuaPJG-4haJfpa0ikJv-47" style="edgeStyle=orthogonalEdgeStyle;rounded=0;orthogonalLoop=1;jettySize=auto;html=1;exitX=0.25;exitY=1;exitDx=0;exitDy=0;entryX=0;entryY=0.5;entryDx=0;entryDy=0;" parent="1" source="PhuaPJG-4haJfpa0ikJv-7" target="KtT7BSsK7c3JDv44RScj-66" edge="1">
          <mxGeometry relative="1" as="geometry">
            <Array as="points">
              <mxPoint x="490" y="790" />
              <mxPoint x="490" y="810" />
              <mxPoint x="20" y="810" />
              <mxPoint x="20" y="150" />
            </Array>
          </mxGeometry>
        </mxCell>
        <mxCell id="PhuaPJG-4haJfpa0ikJv-48" value="&amp;nbsp;read&amp;nbsp;" style="edgeLabel;html=1;align=center;verticalAlign=middle;resizable=0;points=[];labelBorderColor=default;fontSize=15;" parent="PhuaPJG-4haJfpa0ikJv-47" vertex="1" connectable="0">
          <mxGeometry relative="1" as="geometry">
            <mxPoint x="140" y="95" as="offset" />
          </mxGeometry>
        </mxCell>
        <mxCell id="PhuaPJG-4haJfpa0ikJv-7" value="plot_modes.py" style="rounded=1;whiteSpace=wrap;html=1;fontSize=14;" parent="1" vertex="1">
          <mxGeometry x="445" y="730" width="134" height="60" as="geometry" />
        </mxCell>
        <mxCell id="PhuaPJG-4haJfpa0ikJv-10" value="bdivfree.py" style="swimlane;whiteSpace=wrap;html=1;" parent="1" vertex="1">
          <mxGeometry x="261" y="830" width="520" height="250" as="geometry">
            <mxRectangle x="314" y="170" width="140" height="30" as="alternateBounds" />
          </mxGeometry>
        </mxCell>
        <mxCell id="PhuaPJG-4haJfpa0ikJv-11" style="edgeStyle=orthogonalEdgeStyle;rounded=0;orthogonalLoop=1;jettySize=auto;html=1;exitX=0.5;exitY=1;exitDx=0;exitDy=0;" parent="PhuaPJG-4haJfpa0ikJv-10" source="PhuaPJG-4haJfpa0ikJv-13" target="PhuaPJG-4haJfpa0ikJv-16" edge="1">
          <mxGeometry relative="1" as="geometry" />
        </mxCell>
        <mxCell id="PhuaPJG-4haJfpa0ikJv-12" value="&lt;font style=&quot;font-size: 15px;&quot;&gt;&amp;nbsp;call&amp;nbsp;&lt;/font&gt;" style="edgeLabel;html=1;align=center;verticalAlign=middle;resizable=0;points=[];labelBorderColor=default;" parent="PhuaPJG-4haJfpa0ikJv-11" vertex="1" connectable="0">
          <mxGeometry relative="1" as="geometry">
            <mxPoint as="offset" />
          </mxGeometry>
        </mxCell>
        <mxCell id="PhuaPJG-4haJfpa0ikJv-13" value="field_c" style="rounded=1;whiteSpace=wrap;html=1;" parent="PhuaPJG-4haJfpa0ikJv-10" vertex="1">
          <mxGeometry x="191.5" y="71" width="120" height="60" as="geometry" />
        </mxCell>
        <mxCell id="PhuaPJG-4haJfpa0ikJv-16" value="vector_potentials" style="rounded=1;whiteSpace=wrap;html=1;" parent="PhuaPJG-4haJfpa0ikJv-10" vertex="1">
          <mxGeometry x="190.5" y="178" width="120" height="60" as="geometry" />
        </mxCell>
        <mxCell id="PhuaPJG-4haJfpa0ikJv-35" value="field_divfree" style="rounded=1;whiteSpace=wrap;html=1;" parent="PhuaPJG-4haJfpa0ikJv-10" vertex="1">
          <mxGeometry x="19.5" y="71" width="120" height="60" as="geometry" />
        </mxCell>
        <mxCell id="PhuaPJG-4haJfpa0ikJv-37" value="" style="edgeStyle=orthogonalEdgeStyle;rounded=0;orthogonalLoop=1;jettySize=auto;html=1;" parent="PhuaPJG-4haJfpa0ikJv-10" source="PhuaPJG-4haJfpa0ikJv-13" target="PhuaPJG-4haJfpa0ikJv-35" edge="1">
          <mxGeometry relative="1" as="geometry" />
        </mxCell>
        <mxCell id="PhuaPJG-4haJfpa0ikJv-40" value="&lt;font style=&quot;font-size: 15px;&quot;&gt;&amp;nbsp;call&amp;nbsp;&lt;/font&gt;" style="edgeLabel;html=1;align=center;verticalAlign=middle;resizable=0;points=[];labelBorderColor=default;fontSize=15;" parent="PhuaPJG-4haJfpa0ikJv-37" vertex="1" connectable="0">
          <mxGeometry x="0.2525" y="2" relative="1" as="geometry">
            <mxPoint x="10" y="-2" as="offset" />
          </mxGeometry>
        </mxCell>
        <mxCell id="PhuaPJG-4haJfpa0ikJv-34" value="read_field4" style="rounded=1;whiteSpace=wrap;html=1;" parent="PhuaPJG-4haJfpa0ikJv-10" vertex="1">
          <mxGeometry x="380.5" y="71" width="120" height="60" as="geometry" />
        </mxCell>
        <mxCell id="PhuaPJG-4haJfpa0ikJv-36" value="" style="edgeStyle=orthogonalEdgeStyle;rounded=0;orthogonalLoop=1;jettySize=auto;html=1;" parent="PhuaPJG-4haJfpa0ikJv-10" source="PhuaPJG-4haJfpa0ikJv-13" target="PhuaPJG-4haJfpa0ikJv-34" edge="1">
          <mxGeometry relative="1" as="geometry" />
        </mxCell>
        <mxCell id="PhuaPJG-4haJfpa0ikJv-41" value="&amp;nbsp;call&amp;nbsp;" style="edgeLabel;html=1;align=center;verticalAlign=middle;resizable=0;points=[];labelBorderColor=default;fontSize=15;" parent="PhuaPJG-4haJfpa0ikJv-36" vertex="1" connectable="0">
          <mxGeometry relative="1" as="geometry">
            <mxPoint x="-4" as="offset" />
          </mxGeometry>
        </mxCell>
        <mxCell id="PhuaPJG-4haJfpa0ikJv-43" style="edgeStyle=orthogonalEdgeStyle;rounded=0;orthogonalLoop=1;jettySize=auto;html=1;exitX=1;exitY=0.5;exitDx=0;exitDy=0;entryX=1;entryY=0.5;entryDx=0;entryDy=0;" parent="1" source="PhuaPJG-4haJfpa0ikJv-34" target="KtT7BSsK7c3JDv44RScj-70" edge="1">
          <mxGeometry relative="1" as="geometry">
            <Array as="points">
              <mxPoint x="800" y="930" />
              <mxPoint x="800" y="150" />
            </Array>
          </mxGeometry>
        </mxCell>
        <mxCell id="PhuaPJG-4haJfpa0ikJv-44" value="&amp;nbsp;read&amp;nbsp;" style="edgeLabel;html=1;align=center;verticalAlign=middle;resizable=0;points=[];labelBorderColor=default;fontSize=15;" parent="PhuaPJG-4haJfpa0ikJv-43" vertex="1" connectable="0">
          <mxGeometry x="-0.8304" y="-1" relative="1" as="geometry">
            <mxPoint as="offset" />
          </mxGeometry>
        </mxCell>
        <mxCell id="voCoQqz5ePjjOg-xPyhB-3" style="edgeStyle=orthogonalEdgeStyle;rounded=0;orthogonalLoop=1;jettySize=auto;html=1;exitX=0;exitY=0.5;exitDx=0;exitDy=0;entryX=0.25;entryY=1;entryDx=0;entryDy=0;" edge="1" parent="1" source="voCoQqz5ePjjOg-xPyhB-2" target="KtT7BSsK7c3JDv44RScj-83">
          <mxGeometry relative="1" as="geometry">
            <Array as="points">
              <mxPoint x="80" y="760" />
            </Array>
          </mxGeometry>
        </mxCell>
        <mxCell id="voCoQqz5ePjjOg-xPyhB-4" value="&amp;nbsp;read&amp;nbsp;" style="edgeLabel;html=1;align=center;verticalAlign=middle;resizable=0;points=[];fontSize=15;labelBorderColor=default;" vertex="1" connectable="0" parent="voCoQqz5ePjjOg-xPyhB-3">
          <mxGeometry x="-0.5092" y="1" relative="1" as="geometry">
            <mxPoint x="11" y="-1" as="offset" />
          </mxGeometry>
        </mxCell>
        <mxCell id="voCoQqz5ePjjOg-xPyhB-2" value="plot_coils.py" style="rounded=1;whiteSpace=wrap;html=1;fontSize=14;" vertex="1" parent="1">
          <mxGeometry x="220" y="730" width="134" height="60" as="geometry" />
        </mxCell>
      </root>
    </mxGraphModel>
  </diagram>
</mxfile>
